<svg xmlns="http://www.w3.org/2000/svg" width="1200" height="630" viewBox="0 0 1200 630" fill="none">
  <defs>
    <linearGradient id="bg" x1="0" y1="0" x2="0" y2="1">
      <stop offset="0" stop-color="#1E1927"/>
      <stop offset="1" stop-color="#0B0A10"/>
    </linearGradient>
    <linearGradient id="gold" x1="0" y1="0" x2="1" y2="1">
      <stop offset="0" stop-color="#E8D7A8"/>
      <stop offset="1" stop-color="#F5E8C0"/>
    </linearGradient>
    <linearGradient id="warm" x1="0" y1="0" x2="1" y2="0">
      <stop offset="0" stop-color="#D9C099"/>
      <stop offset="1" stop-color="#F7E6C2"/>
    </linearGradient>
    <radialGradient id="glow" cx="50%" cy="35%" r="45%">
      <stop offset="0%" stop-color="#F9E9C8" stop-opacity="0.24"/>
      <stop offset="100%" stop-color="#F9E9C8" stop-opacity="0"/>
    </radialGradient>
    <filter id="soft" x="-30%" y="-30%" width="160%" height="160%">
      <feGaussianBlur in="SourceGraphic" stdDeviation="8"/>
    </filter>
    <pattern id="paper" width="32" height="32" patternUnits="userSpaceOnUse">
      <rect width="32" height="32" fill="#000000" fill-opacity="0"/>
      <circle cx="4" cy="4" r="1.2" fill="#FFF4D1" fill-opacity="0.18"/>
    </pattern>
  </defs>

  <rect width="1200" height="630" fill="url(#bg)"/>
  <ellipse cx="620" cy="310" rx="430" ry="250" fill="url(#glow)"/>

  <g opacity="0.12">
    <rect x="60" y="60" width="1080" height="510" rx="32" fill="url(#paper)"/>
  </g>

  <g stroke="url(#gold)" stroke-width="4" fill="none">
    <path d="M120 100 H220 M120 100 V200"/>
    <path d="M1080 100 H980 M1080 100 V200"/>
    <path d="M120 530 H220 M120 530 V430"/>
    <path d="M1080 530 H980 M1080 530 V430"/>
  </g>

  <g transform="translate(200, 100)">
    <rect x="0" y="0" width="800" height="430" rx="32" fill="#181221" stroke="#8F7F5A" stroke-width="2"/>
    <rect x="22" y="22" width="756" height="386" rx="26" fill="#191520"/>

    <g>
      <rect x="34" y="34" width="712" height="80" rx="20" fill="#2E2437"/>
      <text x="70" y="78" fill="#F7E7C2" font-family="Georgia, serif" font-size="42" font-weight="700">Genesis Martin</text>
      <text x="70" y="110" fill="#D6C2A6" font-family="Georgia, serif" font-size="16" letter-spacing="0.18em">Victorian Portfolio • Interactive Story</text>
    </g>

    <g transform="translate(46, 140)">
      <rect x="0" y="0" width="708" height="252" rx="28" fill="#1F1624" stroke="#7A664B" stroke-width="1.5"/>
      <rect x="26" y="26" width="656" height="46" rx="18" fill="#2D2434"/>
      <text x="40" y="58" fill="#E7D8B2" font-family="Georgia, serif" font-size="24" font-weight="700">Portfolio Showcase</text>

      <g transform="translate(40, 90)">
        <rect x="0" y="0" width="620" height="18" rx="9" fill="#3D2D44"/>
        <rect x="0" y="34" width="520" height="14" rx="7" fill="#3D2D44"/>
        <rect x="0" y="58" width="320" height="14" rx="7" fill="#3D2D44"/>
        <rect x="0" y="82" width="460" height="14" rx="7" fill="#3D2D44"/>
        <rect x="0" y="106" width="380" height="14" rx="7" fill="#3D2D44"/>
      </g>

      <g transform="translate(520, 32)">
        <rect x="0" y="0" width="120" height="120" rx="24" fill="url(#warm)" stroke="#7A5E30" stroke-width="2"/>
        <circle cx="60" cy="60" r="34" fill="#3F2E1F"/>
        <path d="M48 52 C52 40 68 36 78 46 L88 36 L94 58 L84 74 L76 66 C66 82 52 78 48 64 Z" fill="#E5D7AB"/>
      </g>
    </g>

    <g transform="translate(56, 410)">
      <g transform="translate(0, 0)">
        <rect x="0" y="0" width="180" height="42" rx="21" fill="#2B2333" stroke="#7C6749" stroke-width="1"/>
        <text x="90" y="28" fill="#EADBB7" font-family="Georgia, serif" font-size="13" font-weight="700" text-anchor="middle">Victorian</text>
      </g>
      <g transform="translate(210, 0)">
        <rect x="0" y="0" width="180" height="42" rx="21" fill="#2B2333" stroke="#7C6749" stroke-width="1"/>
        <text x="90" y="28" fill="#EADBB7" font-family="Georgia, serif" font-size="13" font-weight="700" text-anchor="middle">Heritage</text>
      </g>
      <g transform="translate(420, 0)">
        <rect x="0" y="0" width="180" height="42" rx="21" fill="#2B2333" stroke="#7C6749" stroke-width="1"/>
        <text x="90" y="28" fill="#EADBB7" font-family="Georgia, serif" font-size="13" font-weight="700" text-anchor="middle">Storybook</text>
      </g>
    </g>
  </g>

  <g transform="translate(160, 520)">
    <path d="M0 0 C50 12 90 10 120 0" stroke="#C9B27A" stroke-width="2" fill="none"/>
    <path d="M1080 0 C1030 12 990 10 960 0" stroke="#C9B27A" stroke-width="2" fill="none"/>
  </g>

  <text x="600" y="585" fill="#C9B27A" font-family="Georgia, serif" font-size="14" font-weight="500" text-anchor="middle">genesis-martin.vercel.app</text>
</svg>
